<svg width="9" height="14" viewBox="0 0 9 14" fill="none" xmlns="http://www.w3.org/2000/svg">
<path id="Vector" fill-rule="evenodd" clip-rule="evenodd" d="M8.69214 6.24365C8.88927 6.44084 9.00001 6.70825 9.00001 6.98708C9.00001 7.26591 8.88927 7.53332 8.69214 7.73051L2.74367 13.679C2.64667 13.7794 2.53064 13.8595 2.40235 13.9146C2.27406 13.9697 2.13607 13.9987 1.99645 14C1.85683 14.0012 1.71837 13.9746 1.58914 13.9217C1.45991 13.8688 1.34251 13.7907 1.24378 13.692C1.14504 13.5933 1.06697 13.4759 1.01409 13.3467C0.961223 13.2174 0.934617 13.079 0.935831 12.9393C0.937044 12.7997 0.966052 12.6617 1.02116 12.5334C1.07627 12.4052 1.15638 12.2891 1.25681 12.1921L6.46186 6.98708L1.25681 1.78203C1.06527 1.58371 0.959277 1.31809 0.961673 1.04239C0.964069 0.766681 1.07466 0.502946 1.26962 0.307984C1.46458 0.113023 1.72831 0.00243556 2.00402 3.97504e-05C2.27973 -0.00235606 2.54535 0.103632 2.74367 0.295175L8.69214 6.24365Z" fill="#3167D9"/>
</svg>
