<svg width="12" height="18" viewBox="0 0 12 18" fill="none" xmlns="http://www.w3.org/2000/svg">
<path id="Vector" fill-rule="evenodd" clip-rule="evenodd" d="M10.7884 8.02755C11.0418 8.28108 11.1842 8.62489 11.1842 8.98339C11.1842 9.34188 11.0418 9.68569 10.7884 9.93922L3.14033 17.5873C3.01561 17.7164 2.86643 17.8194 2.70149 17.8902C2.53654 17.9611 2.35914 17.9984 2.17963 17.9999C2.00011 18.0015 1.82209 17.9673 1.65594 17.8993C1.48979 17.8313 1.33884 17.731 1.2119 17.604C1.08496 17.4771 0.984571 17.3261 0.916593 17.16C0.848616 16.9938 0.814409 16.8158 0.815969 16.6363C0.817529 16.4568 0.854824 16.2794 0.925679 16.1144C0.996534 15.9495 1.09953 15.8003 1.22866 15.6756L7.92086 8.98339L1.22866 2.29118C0.982385 2.0362 0.846115 1.69469 0.849195 1.34021C0.852275 0.985732 0.994459 0.646644 1.24512 0.39598C1.49579 0.145315 1.83488 0.00313144 2.18936 5.11077e-05C2.54384 -0.00302922 2.88535 0.133241 3.14033 0.379511L10.7884 8.02755Z" fill="white"/>
</svg>
