<svg width="12" height="18" viewBox="0 0 12 18" fill="none" xmlns="http://www.w3.org/2000/svg">
<path id="Vector" fill-rule="evenodd" clip-rule="evenodd" d="M1.21163 8.02755C0.95818 8.28108 0.815798 8.6249 0.815798 8.98339C0.815798 9.34188 0.95818 9.68569 1.21163 9.93922L8.85967 17.5873C8.98439 17.7164 9.13357 17.8194 9.29851 17.8902C9.46346 17.9611 9.64086 17.9984 9.82037 17.9999C9.99989 18.0015 10.1779 17.9673 10.3441 17.8993C10.5102 17.8313 10.6612 17.731 10.7881 17.604C10.915 17.4771 11.0154 17.3261 11.0834 17.16C11.1514 16.9938 11.1856 16.8158 11.184 16.6363C11.1825 16.4568 11.1452 16.2794 11.0743 16.1144C11.0035 15.9495 10.9005 15.8003 10.7713 15.6756L4.07914 8.98339L10.7713 2.29118C11.0176 2.0362 11.1539 1.69469 11.1508 1.34021C11.1477 0.985732 11.0055 0.646644 10.7549 0.39598C10.5042 0.145315 10.1651 0.00313144 9.81064 5.11077e-05C9.45616 -0.00302922 9.11466 0.133241 8.85967 0.379511L1.21163 8.02755Z" fill="white"/>
</svg>
