<svg width="60" height="60" viewBox="0 0 60 60" fill="none" xmlns="http://www.w3.org/2000/svg">
<g id="Group 3">
<circle id="Ellipse 1" cx="30" cy="30" r="30" fill="#3167D9"/>
<path id="Vector" d="M41.9673 18.8212L38.3877 17.9264L37.4927 14.3467C37.4419 14.143 37.2587 14 37.0487 14C36.8387 14 36.6556 14.143 36.6046 14.3468L35.8958 17.1823C35.0917 16.7759 34.2062 16.5657 33.2963 16.5693L33.2224 16.5696C31.9674 16.5751 30.8108 17.2346 30.1284 18.3337C29.6751 19.0635 28.8925 19.4993 28.0346 19.4993C27.1768 19.4993 26.3941 19.0635 25.9409 18.3337C25.2585 17.2346 24.1018 16.5751 22.847 16.5696L22.7727 16.5693C22.7641 16.5693 22.7555 16.5692 22.7468 16.5692C19.6572 16.5692 17.0826 19.0729 17.002 22.1622C16.9854 22.7986 17.0721 23.4263 17.2608 24.0311L19.3021 30.4116C19.3037 32.9086 19.8337 36.7063 21.0037 39.2321L23.6269 44.8943C23.8528 45.5506 24.4533 45.9936 25.1303 45.9999C25.5608 46.0043 25.9636 45.8398 26.2683 45.5379C26.5731 45.2359 26.741 44.8333 26.741 44.4043C26.741 44.3618 26.7351 44.3196 26.7235 44.2787C26.204 42.4573 25.1628 37.3232 26.5649 35.4654C26.914 35.0029 27.3947 34.778 28.0346 34.778C28.6587 34.778 29.1293 34.9983 29.4732 35.4514C30.8712 37.2932 29.8562 42.4268 29.3472 44.2494C29.336 44.2894 29.3303 44.3309 29.3303 44.3726C29.3303 45.2006 29.9868 45.9282 30.7937 45.9945C30.8386 45.9982 30.8832 46 30.9276 46C31.6062 46 32.2106 45.5738 32.4343 44.9252L35.0699 39.2279C36.2372 36.7046 36.7658 32.9097 36.7672 30.4115L38.8096 24.0279C38.9972 23.4263 39.084 22.7986 39.0674 22.1623C39.0526 21.5947 38.9545 21.0401 38.7762 20.5072L41.9673 19.7094C42.1711 19.6585 42.314 19.4754 42.314 19.2653C42.314 19.0552 42.171 18.8721 41.9673 18.8212ZM37.9222 19.7769C37.7521 19.8102 37.6101 19.939 37.5661 20.1152L37.0486 22.1854L36.8739 21.4867C36.8127 21.2415 36.5639 21.0923 36.3189 21.1537C36.0736 21.215 35.9244 21.4635 35.9858 21.7087L36.6046 24.1838C36.6556 24.3876 36.8387 24.5305 37.0487 24.5305C37.2588 24.5305 37.4419 24.3875 37.4928 24.1837L38.1142 21.6977C38.1349 21.859 38.1479 22.0218 38.1522 22.186C38.1661 22.7217 38.0933 23.2496 37.9367 23.752L35.8735 30.2007C35.8588 30.2463 35.8515 30.2993 35.8516 30.3472C35.8599 32.7423 35.3588 36.4227 34.239 38.8434L31.5929 44.5634C31.5853 44.5799 31.5786 44.5968 31.5731 44.6142C31.4751 44.9156 31.1857 45.1079 30.8688 45.0819C30.5539 45.056 30.2757 44.7561 30.2481 44.4258C30.4584 43.6491 32.0777 37.3693 30.2027 34.898C29.6813 34.2108 28.9518 33.8624 28.0347 33.8624C27.1011 33.8624 26.3607 34.2161 25.8342 34.9137C23.9563 37.4021 25.6083 43.6797 25.8234 44.4591C25.8105 44.6212 25.7409 44.7715 25.6241 44.8873C25.4943 45.016 25.3227 45.0854 25.1389 45.0843C24.8508 45.0816 24.5833 44.8756 24.4883 44.5832C24.4827 44.5658 24.476 44.5488 24.4683 44.5323L21.8345 38.8471C20.8086 36.6325 20.3009 33.3659 20.2274 30.9896C21.4807 31.4001 24.4531 32.2282 28.0348 32.2282C29.8134 32.2282 31.6657 32.0182 33.54 31.604C33.7868 31.5494 33.9427 31.3051 33.8881 31.0582C33.8336 30.8114 33.5891 30.6554 33.3424 30.7101C33.1178 30.7597 32.8936 30.8063 32.6699 30.8498L33.6682 28.3166C33.7609 28.0813 33.6454 27.8155 33.4102 27.7228C33.175 27.6302 32.9093 27.7456 32.8165 27.9809L31.6137 31.033C30.3972 31.2187 29.199 31.3127 28.0348 31.3127C26.721 31.3127 25.4836 31.1934 24.3898 31.0248L23.1902 27.9809C23.0975 27.7456 22.8316 27.6302 22.5965 27.7228C22.3613 27.8155 22.2458 28.0813 22.3385 28.3166L23.3328 30.8395C21.7363 30.5259 20.5738 30.1445 20.1277 29.9872L18.1338 23.7553C17.9761 23.2498 17.9033 22.7218 17.9173 22.1861C17.9852 19.5819 20.1644 17.4727 22.7684 17.4848L22.8429 17.4851C23.7807 17.4893 24.6481 17.987 25.1632 18.8166C25.7846 19.8173 26.858 20.4148 28.0347 20.4148C29.2114 20.4148 30.2848 19.8173 30.9062 18.8166C31.4212 17.9869 32.2887 17.4892 33.2266 17.4851L33.3007 17.4848C33.3081 17.4848 33.3152 17.4847 33.3226 17.4847C34.0678 17.4847 34.7968 17.6579 35.4604 17.9887L32.1302 18.8213C31.9264 18.8722 31.7834 19.0553 31.7834 19.2654C31.7834 19.4754 31.9264 19.6585 32.1302 19.7095L35.0321 20.4349C35.2775 20.4962 35.5259 20.347 35.5872 20.1018C35.6485 19.8565 35.4994 19.608 35.2542 19.5467L34.1287 19.2654L36.1754 18.7537C36.3463 18.7202 36.4877 18.5909 36.5315 18.4155L37.0489 16.3453L37.5606 18.3919C37.5939 18.562 37.7227 18.704 37.8989 18.748L39.969 19.2654L37.9222 19.7769Z" fill="white"/>
</g>
</svg>
