<svg width="60" height="60" viewBox="0 0 60 60" fill="none" xmlns="http://www.w3.org/2000/svg">
<g id="Group 3">
<circle id="Ellipse 1" cx="30" cy="30" r="30" fill="#3167D9"/>
<g id="Group">
<path id="Vector" d="M43.5397 19.8194C43.093 18.1298 41.7851 16.5166 39.8574 15.2775C37.483 13.7501 34.1251 13.5803 31.0959 14.833L30.9894 14.8783C30.9375 14.9007 30.8867 14.9231 30.8365 14.9406C30.5826 15.0291 30.3876 15.1044 30.2287 15.1661C29.7247 15.3616 29.7241 15.3611 28.8951 15.117C26.5278 14.4196 23.5139 13.7234 21.2029 14.5425C18.0737 15.6511 15.2996 19.3214 16.158 25.0215C16.2596 25.6954 16.3585 26.3753 16.4573 27.0579C17.1738 31.982 17.9143 37.0738 19.8185 41.6713L19.8835 41.8292C20.3564 42.9803 21.1477 44.9075 22.525 44.9075H22.6358L22.7379 44.8643C24.0021 44.3292 24.4751 43.1158 24.8202 42.23L23.8028 41.833C23.4533 42.7297 23.1262 43.45 22.431 43.8033C21.8118 43.6487 21.1504 42.0389 20.8938 41.4141L20.8277 41.253C18.9759 36.7822 18.2447 31.7586 17.538 26.9011C17.4381 26.2163 17.3392 25.5354 17.2377 24.8598C16.6861 21.1956 17.8111 16.9033 21.5676 15.5719C23.5849 14.857 26.4901 15.5506 28.5249 16.1464C32.0335 18.1396 32.033 19.0014 32.0193 22.5646L32.0177 23.2855C32.0177 23.5874 32.2623 23.8315 32.5638 23.8315C32.8652 23.8315 33.1099 23.5874 33.1099 23.2855L33.1115 22.5684C33.123 19.4448 33.1186 17.9741 30.6235 16.1841C30.7732 16.1262 30.9555 16.0557 31.1953 15.9722C31.2717 15.9454 31.3471 15.9137 31.423 15.8804L31.5126 15.8422C34.2168 14.7243 37.1881 14.8592 39.2665 16.1955C40.9644 17.2872 42.1068 18.6731 42.4836 20.0985C43.6211 24.3973 42.3907 29.5093 41.3046 34.02C41.1052 34.8495 40.9097 35.661 40.7339 36.4469L40.5761 37.1601C40.1501 39.1003 39.7094 41.1061 38.7221 42.8356C38.3901 43.4177 38.0493 43.7405 37.8227 43.7274C37.5726 43.7017 36.8818 43.3063 35.8737 40.2018L34.835 40.5387C35.4958 42.5746 36.3548 44.6743 37.7113 44.8136C38.4256 44.8884 39.0852 44.4034 39.6712 43.3773C40.7405 41.5026 41.1997 39.4143 41.6431 37.3949L41.7999 36.6861C41.9752 35.9051 42.169 35.0996 42.3673 34.2756C43.4829 29.6398 44.7477 24.3847 43.5397 19.8194Z" fill="white"/>
<path id="Vector_2" d="M28.3506 25.2482L26.3923 27.2065V29.6169H34.0376V27.2065L32.0794 25.2482H28.3506Z" fill="white"/>
<path id="Vector_3" d="M31.8533 32.1655C31.6245 32.1655 31.4115 32.0208 31.335 31.7919C31.2395 31.5058 31.394 31.1962 31.6802 31.1011L32.8575 30.7085H26.3923V32.6925L29.5034 31.7046C29.7901 31.6123 30.0976 31.7717 30.1893 32.0595C30.2805 32.3468 30.1216 32.6542 29.8344 32.7454L26.3923 33.8382V35.969L29.5034 34.9811C29.7901 34.8888 30.0976 35.0483 30.1893 35.3361C30.2805 35.6233 30.1216 35.9308 29.8344 36.022L26.3923 37.1147V39.2456L29.5034 38.2577C29.7901 38.1654 30.0976 38.3249 30.1893 38.6127C30.2805 38.8999 30.1216 39.2074 29.8344 39.2985L26.3923 40.3913V41.6298H27.4845V43.45L29.3958 45.9986H31.0341L32.9455 43.45V41.6298H34.0376V38.0185L32.0258 38.6891C31.9685 38.7082 31.9101 38.7175 31.8533 38.7175C31.6245 38.7175 31.4115 38.5728 31.335 38.344C31.2395 38.0578 31.394 37.7482 31.6802 37.6532L34.0371 36.8673V34.7419L32.0253 35.4125C31.9679 35.4317 31.9095 35.4409 31.8527 35.4409C31.6239 35.4409 31.4109 35.2962 31.3345 35.0674C31.2389 34.7813 31.3935 34.4716 31.6796 34.3766L34.0366 33.5908V31.4654L32.0247 32.136C31.969 32.1567 31.9106 32.1655 31.8533 32.1655Z" fill="white"/>
</g>
</g>
</svg>
