<svg width="60" height="60" viewBox="0 0 60 60" fill="none" xmlns="http://www.w3.org/2000/svg">
<g id="Group 3">
<circle id="Ellipse 1" cx="30" cy="30" r="30" fill="#3167D9"/>
<g id="Group">
<g id="Group_2">
<path id="Vector" d="M34.466 25.3928H24.5379C23.8259 25.3928 23.2446 25.9741 23.2446 26.6861C23.2446 27.398 23.8259 27.9794 24.5379 27.9794H34.466C35.178 27.9794 35.7593 27.398 35.7593 26.6861C35.7593 25.9741 35.1845 25.3928 34.466 25.3928Z" fill="white"/>
<path id="Vector_2" d="M44.466 22.1923C43.4471 18.1753 41.2655 15.4582 38.2087 14.4392C35.485 13.4856 32.3563 14.0996 29.502 16.1374C26.6477 14.1649 23.5125 13.5509 20.7953 14.4392C17.732 15.4582 15.4851 18.2472 14.538 22.1923C13.5844 25.9349 13.924 30.4222 15.3545 34.7069C16.8502 39.3313 19.502 43.1458 22.7026 45.5887C23.4537 46.1308 24.538 46.0655 25.2172 45.3862C25.792 44.8114 25.7594 44.3019 25.7594 43.4789C25.7594 39.1223 27.7319 36.0655 29.502 36.0655C31.2721 36.0655 33.2446 39.1289 33.2446 43.4789C33.2446 44.4522 33.3296 44.9224 33.7868 45.3862C34.7339 46.4378 35.9618 45.863 36.3015 45.6605C39.502 43.2111 42.082 39.3313 43.6496 34.7788C45.08 30.4287 45.4196 25.9349 44.466 22.1923ZM41.1349 33.8971C39.9788 37.3001 38.1434 40.3569 35.8965 42.4666C35.5568 37.2935 32.8332 33.4203 29.502 33.4203C26.1709 33.4203 23.4472 37.3654 23.1075 42.4666C20.8606 40.3569 19.0252 37.2935 17.8691 33.8971C16.5759 30.0173 16.3015 26.144 17.118 22.8063C17.8691 19.743 19.4302 17.7051 21.6052 16.954C23.7803 16.2028 26.3015 16.954 28.679 18.8612C29.1558 19.2662 29.8351 19.2662 30.3119 18.8612C32.7613 16.954 35.276 16.2094 37.3857 16.954C39.4954 17.6333 41.1283 19.743 41.873 22.8063C42.7025 26.0721 42.4281 30.0173 41.1349 33.8971Z" fill="white"/>
</g>
</g>
</g>
</svg>
